<svg xmlns="http://www.w3.org/2000/svg" width="25.673" height="25.673" viewBox="0 0 25.673 25.673">
    <path fill="#fff"
        d="M23.439,6.13h0a1.442,1.442,0,0,0-2.04,0l-6.615,6.615L8.169,6.13a1.442,1.442,0,0,0-2.04,0h0a1.442,1.442,0,0,0,0,2.04l6.615,6.615L6.13,21.4a1.442,1.442,0,0,0,0,2.04h0a1.442,1.442,0,0,0,2.04,0l6.615-6.615L21.4,23.439a1.442,1.442,0,0,0,2.04,0h0a1.442,1.442,0,0,0,0-2.04l-6.615-6.615,6.615-6.615A1.442,1.442,0,0,0,23.439,6.13Z"
        transform="translate(12.837 -8.071) rotate(45)" />
</svg>