<svg xmlns="http://www.w3.org/2000/svg" width="48.083" height="48.083" viewBox="0 0 48.083 48.083">
    <g transform="translate(24.042) rotate(45)">
        <path fill="#5d5d5d"
            d="M19.557,8.126a1.429,1.429,0,0,0-2.02,0l-3.7,3.7-3.7-3.7a1.429,1.429,0,1,0-2.021,2.021l3.7,3.695-3.7,3.7a1.429,1.429,0,1,0,2.021,2.021l3.695-3.7,3.7,3.7a1.429,1.429,0,1,0,2.021-2.021l-3.7-3.695,3.7-3.7A1.429,1.429,0,0,0,19.557,8.126Z"
            transform="translate(3.159 3.159)" />
        <path fill="#5d5d5d"
            d="M17,0A17,17,0,1,0,34,17,17,17,0,0,0,17,0Zm0,31.167A14.167,14.167,0,1,1,31.167,17,14.167,14.167,0,0,1,17,31.167Z" />
    </g>
</svg>