<svg height="73.206" viewBox="0 0 97 73.206" width="97" xmlns="http://www.w3.org/2000/svg">
    <g transform="translate(-167 -490.794)">
        <text fill="#a1a1a1" font-family="Montserrat-Regular, Montserrat" font-size="18px"
            transform="translate(167 559)">
            <tspan x="0" y="0">Add Photo</tspan>
        </text>
        <g transform="translate(192.792 490.792)">
            <path
                d="M17177.047,2690.418a8.85,8.85,0,0,1-8.838-8.837v-17.675a8.85,8.85,0,0,1,8.838-8.837h.9l3.857-5.006a5.339,5.339,0,0,1,4.2-2.06h6.834a5.345,5.345,0,0,1,4.2,2.06l3.855,5.006h.9a8.848,8.848,0,0,1,8.838,8.837v17.675a8.849,8.849,0,0,1-8.838,8.837Zm-5.3-26.512v17.675a5.306,5.306,0,0,0,5.3,5.3h24.74a5.305,5.305,0,0,0,5.3-5.3v-17.675a5.3,5.3,0,0,0-5.3-5.3h-24.74A5.3,5.3,0,0,0,17171.742,2663.906Zm12.859-11.684-2.2,2.846h14.021l-2.193-2.846a1.782,1.782,0,0,0-1.4-.687H17186A1.778,1.778,0,0,0,17184.6,2652.222Zm-5.787,20.521a10.6,10.6,0,1,1,10.6,10.6A10.6,10.6,0,0,1,17178.814,2672.743Zm3.537,0a7.068,7.068,0,1,0,7.066-7.071A7.068,7.068,0,0,0,17182.352,2672.743Z"
                fill="#a1a1a1" transform="translate(-17168.209 -2648)" />
        </g>
    </g>
</svg>