<svg xmlns="http://www.w3.org/2000/svg" width="32" height="32" viewBox="0 0 32 32">
    <g transform="translate(-0.166 0)">
        <rect fill="#213fb9" width="32" height="32" rx="16" transform="translate(0.166 0)" />
        <g transform="translate(7.862 7.862)">
            <rect fill="#fff" opacity="0" width="16.367" height="16.367"
                transform="translate(0 0)" />
            <g transform="translate(1.909 0)">
                <g transform="translate(0 9.658)">
                    <g transform="translate(0 0)">
                        <path fill="#fff"
                            d="M157.231,282.669a5.1,5.1,0,0,0-2.452-.624h-2.111a5.126,5.126,0,0,0-5.127,5.127v1.582h12.366v-1.582A5.125,5.125,0,0,0,157.231,282.669Z"
                            transform="translate(-147.54 -282.045)" />
                    </g>
                </g>
                <g transform="translate(2.211 0)">
                    <path fill="#fff"
                        d="M190.572,111.445a4.093,4.093,0,0,0-3.972,4.2,4.224,4.224,0,0,0,2.274,3.793,3.777,3.777,0,0,0,3.4,0,4.224,4.224,0,0,0,2.274-3.793A4.093,4.093,0,0,0,190.572,111.445Z"
                        transform="translate(-186.6 -111.445)" />
                </g>
            </g>
        </g>
    </g>
</svg>