<svg xmlns="http://www.w3.org/2000/svg" width="23.605" height="23.605" viewBox="0 0 23.605 23.605">
    <path fill="#fff"
        d="M19811-1831.757a11.8,11.8,0,0,1,11.8-11.8,11.8,11.8,0,0,1,11.8,11.8,11.8,11.8,0,0,1-11.8,11.8A11.8,11.8,0,0,1,19811-1831.757Zm1.922,0a9.875,9.875,0,0,0,9.881,9.876,9.87,9.87,0,0,0,9.875-9.876,9.878,9.878,0,0,0-9.875-9.881A9.879,9.879,0,0,0,19812.922-1831.757Zm8.939,7.78v-.01H19821v-1.847h.861v-6.884h-.811v-1.931h.811v0h2.186v8.821h.713v1.847h-.713v.01Zm-.861-13.649a1.643,1.643,0,0,1,1.768-1.653,1.633,1.633,0,0,1,1.742,1.653,1.651,1.651,0,0,1-1.787,1.663A1.635,1.635,0,0,1,19821-1837.626Z"
        transform="translate(-19811 1843.56)" />
</svg>