<svg xmlns="http://www.w3.org/2000/svg" width="24" height="20.358" viewBox="0 0 24 20.358">
    <path fill="#fff"
        d="M21.025,12.613V11.163A9.087,9.087,0,0,0,12.014,2,9.087,9.087,0,0,0,3,11.163v1.449a5.111,5.111,0,0,0-2.883,5.7A5.027,5.027,0,0,0,5.006,22.36a2.019,2.019,0,0,0,2-2.036V14.217a2.019,2.019,0,0,0-2-2.036V11.163a7.009,7.009,0,1,1,14.017,0v1.018a2.019,2.019,0,0,0-2,2.036v6.107h-3a1.018,1.018,0,0,0,0,2.036h5.006a5.027,5.027,0,0,0,4.885-4.049,5.111,5.111,0,0,0-2.883-5.7ZM5.006,20.325h0a3.054,3.054,0,0,1,0-6.107Zm14.017,0V14.217a3.054,3.054,0,0,1,0,6.107Z"
        transform="translate(-0.014 -2.002)" />
</svg>