<svg xmlns="http://www.w3.org/2000/svg" width="18" height="18" viewBox="0 0 18 18">
    <g transform="translate(-86 -580)">
        <path fill="#213FB9" d="M360.448,972.428h16.3l.259,16.364-16.558.323Z"
            transform="translate(-273.727 -391.771)" />
        <path class="a" fill="#D9EAFA"
            d="M17.357,0H.643A.642.642,0,0,0,0,.643V17.357A.642.642,0,0,0,.643,18H17.357A.642.642,0,0,0,18,17.357V.643A.642.642,0,0,0,17.357,0Zm-.643,16.714H1.286V1.286H16.714V16.714Z"
            transform="translate(86 580)" />
        <path fill="#fff" d="M118.292,160.96l-.909-.909-5.331,5.331-2.76-2.76-.909.909,3.669,3.669Z"
            transform="translate(-18.337 425.923)" />
    </g>
</svg>