<svg height="42.416" viewBox="0 0 42.416 42.416" width="42.416" xmlns="http://www.w3.org/2000/svg">
    <path
        d="M8.838,42.416A8.85,8.85,0,0,1,0,33.578V15.9A8.85,8.85,0,0,1,8.838,7.066h.9L13.594,2.06A5.339,5.339,0,0,1,17.791,0h6.834a5.345,5.345,0,0,1,4.2,2.06L32.68,7.066h.9A8.848,8.848,0,0,1,42.416,15.9V33.578a8.849,8.849,0,0,1-8.838,8.837ZM3.533,15.9V33.578a5.306,5.306,0,0,0,5.3,5.3h24.74a5.305,5.305,0,0,0,5.3-5.3V15.9a5.3,5.3,0,0,0-5.3-5.3H8.838A5.3,5.3,0,0,0,3.533,15.9ZM16.393,4.22,14.2,7.066H28.219L26.025,4.22a1.782,1.782,0,0,0-1.4-.687H17.791A1.778,1.778,0,0,0,16.393,4.22ZM10.605,24.741a10.6,10.6,0,1,1,10.6,10.6A10.6,10.6,0,0,1,10.605,24.741Zm3.537,0a7.068,7.068,0,1,0,7.066-7.071A7.068,7.068,0,0,0,14.143,24.741Z"
        fill="#213FB9" />
</svg>