<svg height="14" viewBox="0 0 14.001 14" width="14.001" xmlns="http://www.w3.org/2000/svg">
    <g transform="translate(0.001 0.001)">
        <path d="M0,7a7,7,0,1,1,7,7A7,7,0,0,1,0,7ZM1.167,7A5.833,5.833,0,1,0,7,1.168,5.833,5.833,0,0,0,1.167,7ZM8.509,9.333,7,7.825,5.491,9.333a.582.582,0,0,1-.824-.823L6.174,7,4.667,5.491a.583.583,0,1,1,.824-.825L7,6.175,8.509,4.666a.583.583,0,1,1,.825.825L7.825,7,9.334,8.509a.583.583,0,1,1-.825.823Z"
            fill="#0d1111"
            transform="translate(-0.001 0)" />
    </g>
</svg>