<svg xmlns="http://www.w3.org/2000/svg" width="48.002" height="48.001" viewBox="0 0 24.002 24.001">
    <g transform="translate(0.001 0)">
        <path fill="#fff"
            d="M9609,2931a12,12,0,1,1,12,12A12,12,0,0,1,9609,2931Zm2,0a10,10,0,1,0,10-10A10,10,0,0,0,9611,2931Zm12.586,4-2.587-2.584-2.587,2.584a1,1,0,1,1-1.412-1.412l2.584-2.587-2.584-2.587a1,1,0,0,1,1.412-1.414l2.587,2.587,2.587-2.587a1,1,0,0,1,1.414,1.414l-2.587,2.587,2.587,2.587a1,1,0,1,1-1.414,1.412Z"
            transform="translate(-9609 -2919)" />
    </g>
</svg>