<svg xmlns="http://www.w3.org/2000/svg" width="63.26" height="63.261" viewBox="0 0 63.26 63.261">
    <path
        d="M-2020.715-7151.4a31.754,31.754,0,0,1,31.63-31.63,31.754,31.754,0,0,1,31.63,31.63,31.754,31.754,0,0,1-31.63,31.63A31.754,31.754,0,0,1-2020.715-7151.4Zm7.537,0a24.122,24.122,0,0,0,24.093,24.093,24.122,24.122,0,0,0,24.093-24.093,24.122,24.122,0,0,0-24.093-24.093A24.122,24.122,0,0,0-2013.178-7151.4Zm3.706,0a20.409,20.409,0,0,1,20.387-20.387A20.409,20.409,0,0,1-1968.7-7151.4a20.409,20.409,0,0,1-20.387,20.387A20.409,20.409,0,0,1-2009.472-7151.4Zm11.121,5.542c0,3.58,3.187,6.575,7.413,7.263v2.022a1.853,1.853,0,0,0,1.853,1.854,1.853,1.853,0,0,0,1.853-1.854v-2.022c4.225-.688,7.413-3.683,7.413-7.263s-3.187-6.574-7.413-7.263v-7.328c2.131.522,3.706,1.895,3.706,3.472a1.853,1.853,0,0,0,1.853,1.854,1.852,1.852,0,0,0,1.853-1.854c0-3.582-3.187-6.574-7.413-7.263v-2a1.852,1.852,0,0,0-1.853-1.853,1.852,1.852,0,0,0-1.853,1.853v2c-4.225.689-7.413,3.681-7.413,7.263s3.187,6.575,7.413,7.263v7.328c-2.131-.525-3.706-1.895-3.706-3.472a1.852,1.852,0,0,0-1.853-1.853A1.851,1.851,0,0,0-1998.351-7145.854Zm11.119-3.47c2.131.523,3.706,1.895,3.706,3.47s-1.576,2.947-3.706,3.472Zm-7.413-7.649c0-1.577,1.576-2.949,3.706-3.472v6.942C-1993.069-7154.025-1994.644-7155.4-1994.644-7156.973Z"
        transform="translate(2020.715 7183.025)" fill="#5d5d5d" />
</svg>