<svg xmlns="http://www.w3.org/2000/svg" width="19.576" height="23.959" viewBox="0 0 19.576 23.959">
    <g transform="translate(0.262 0.25)">
        <path fill="#fe2828" stroke="#0d1111" stroke-width="0.5px"
            d="M6949.855,3133.188a2.71,2.71,0,0,1-1.963-.849,3.031,3.031,0,0,1-.806-2.091v-13.536a2.1,2.1,0,0,1,.539-4.127h2.813v-.687a2.16,2.16,0,0,1,2.176-2.169h4.878a2.157,2.157,0,0,1,2.175,2.169v.687h2.812a2.1,2.1,0,0,1,.54,4.127v13.536a3.03,3.03,0,0,1-.806,2.091,2.71,2.71,0,0,1-1.964.849Zm-1.671-2.94a1.741,1.741,0,0,0,1.671,1.841h10.395a1.74,1.74,0,0,0,1.669-1.841v-13.487h-13.735Zm-1.548-15.574a.988.988,0,0,0,.989.988h14.854a.988.988,0,1,0,0-1.977h-14.854A.988.988,0,0,0,6946.635,3114.674Zm5.212-3.538a1.058,1.058,0,0,0-.311.764v.685h7.032v-.685a1.059,1.059,0,0,0-1.077-1.072h-4.9A1.055,1.055,0,0,0,6951.847,3111.136Zm5.9,18.024v-10.383a.55.55,0,1,1,1.1,0v10.383a.55.55,0,0,1-1.1,0Zm-3.241,0v-10.383a.549.549,0,1,1,1.1,0v10.383a.549.549,0,0,1-1.1,0Zm-3.242,0v-10.383a.55.55,0,1,1,1.1,0v10.383a.55.55,0,0,1-1.1,0Z"
            transform="translate(-6945.525 -3109.729)" />
    </g>
</svg>