<svg xmlns="http://www.w3.org/2000/svg" width="53.944" height="66.289" viewBox="0 0 53.944 66.289">
    <g transform="translate(0.255 0.25)">
        <path class="a" fill="#5d5d5d" stroke="#5d5d5d" stroke-width="0.5px"
            d="M8143.855,1838.684a7.575,7.575,0,0,1-5.5-2.379,8.5,8.5,0,0,1-2.262-5.863v-37.961a5.885,5.885,0,0,1,1.512-11.574h7.886v-1.927a6.054,6.054,0,0,1,6.1-6.085h13.682a6.054,6.054,0,0,1,6.1,6.085v1.927h7.888a5.885,5.885,0,0,1,1.51,11.574v37.961a8.508,8.508,0,0,1-2.26,5.863,7.58,7.58,0,0,1-5.505,2.379Zm-4.684-8.242a4.879,4.879,0,0,0,4.684,5.16h29.152a4.879,4.879,0,0,0,4.684-5.16v-37.826h-38.52Zm-4.345-43.68a2.775,2.775,0,0,0,2.775,2.773h41.661a2.773,2.773,0,1,0,0-5.547H8137.6A2.774,2.774,0,0,0,8134.827,1786.762Zm14.618-9.922a2.971,2.971,0,0,0-.875,2.141v1.927h19.723v-1.927a2.968,2.968,0,0,0-3.02-3h-13.735A2.965,2.965,0,0,0,8149.445,1776.84Zm16.537,50.552v-29.12a1.541,1.541,0,1,1,3.082,0v29.12a1.541,1.541,0,0,1-3.082,0Zm-9.092,0v-29.12a1.542,1.542,0,0,1,3.083,0v29.12a1.542,1.542,0,0,1-3.083,0Zm-9.088,0v-29.12a1.541,1.541,0,1,1,3.081,0v29.12a1.541,1.541,0,1,1-3.081,0Z"
            transform="translate(-8131.715 -1772.895)" />
    </g>
</svg>