<svg xmlns="http://www.w3.org/2000/svg" width="24" height="24" viewBox="0 0 24 24">
    <path fill="#0d1111"
        d="M23.253,2.92,21.078.745a2.551,2.551,0,0,0-3.6,0L1.293,16.927A.716.716,0,0,0,1.1,17.3L.012,23.169a.7.7,0,0,0,.819.819L6.7,22.9a.716.716,0,0,0,.369-.194L23.253,6.525A2.547,2.547,0,0,0,23.253,2.92ZM1.581,22.419l.658-3.552,2.894,2.895Zm4.994-1.2-3.79-3.79L16.623,3.585l3.79,3.791ZM22.259,5.53l-.851.851-3.79-3.791.851-.851a1.144,1.144,0,0,1,1.615,0l2.175,2.175A1.142,1.142,0,0,1,22.259,5.53Z"
        transform="translate(0 0)" />
</svg>