<svg height="24" viewBox="0 0 24 24" width="24" xmlns="http://www.w3.org/2000/svg">
    <g transform="translate(0 0)">
        <path d="M4480,3207a5.006,5.006,0,0,1-5-5v-12a5.006,5.006,0,0,1,5-5h1v-1a1,1,0,1,1,2,0v1h8v-1a1,1,0,1,1,2,0v1h1a5.005,5.005,0,0,1,5,5v12a5.006,5.006,0,0,1-5,5Zm-3-5a3,3,0,0,0,3,3h14a3,3,0,0,0,3-3v-9h-20Zm0-12v1h20v-1a3,3,0,0,0-3-3h-14A3,3,0,0,0,4477,3190Zm13.5,8a1.5,1.5,0,1,1,1.5,1.5A1.5,1.5,0,0,1,4490.5,3198Zm-5,0a1.5,1.5,0,1,1,1.5,1.5A1.5,1.5,0,0,1,4485.5,3198Zm-5,0a1.5,1.5,0,1,1,1.5,1.5A1.5,1.5,0,0,1,4480.5,3198Z"
            fill="#0d1111"
            transform="translate(-4475 -3183)" />
    </g>
</svg>