<svg xmlns="http://www.w3.org/2000/svg" width="27.25" height="23" viewBox="0 0 27.25 23">
    <g transform="translate(0 0)">
        <path fill="#0d1111"
            d="M23.893,43.544H15.268a1.3,1.3,0,0,1-.928-.387L11.649,40.33a3.415,3.415,0,0,0-2.428-.974H3.358A3.357,3.357,0,0,0,0,42.7v16.3a3.357,3.357,0,0,0,3.358,3.349H23.908A3.356,3.356,0,0,0,27.25,59v-12.1A3.357,3.357,0,0,0,23.893,43.544ZM25.2,59A1.3,1.3,0,0,1,23.9,60.308H3.358a1.3,1.3,0,0,1-1.3-1.3V42.7a1.306,1.306,0,0,1,1.3-1.3H9.281a1.3,1.3,0,0,1,.9.357l2.677,2.814a3.378,3.378,0,0,0,2.411,1.018h8.625a1.3,1.3,0,0,1,1.3,1.3V59Z"
            transform="translate(0 -39.356)" />
    </g>
</svg>