<svg xmlns="http://www.w3.org/2000/svg" width="32" height="32" viewBox="0 0 32 32">
    <g transform="translate(0 -0.001)">
        <rect fill="#213fb9" width="32" height="32" rx="16" transform="translate(0 0.001)" />
        <g transform="translate(8.01 8.01)">
            <rect fill="#fff" opacity="0" width="16.045" height="16.045" />
            <g transform="translate(0.302)">
                <path fill="#fff"
                    d="M19.307,13.991v.468a.742.742,0,0,1-.629.735l-.115.425a.529.529,0,0,1-.511.392H16.909a.529.529,0,0,1-.511-.392l-.112-.425a.745.745,0,0,1-.633-.738v-.468a.45.45,0,0,1,.451-.451h2.751A.455.455,0,0,1,19.307,13.991Zm2.118-6.305a3.924,3.924,0,0,1-1.107,2.738,3.617,3.617,0,0,0-.969,1.963.652.652,0,0,1-.646.55H16.257a.646.646,0,0,1-.642-.547,3.657,3.657,0,0,0-.975-1.97,3.944,3.944,0,1,1,6.786-2.734ZM17.927,5.3a.445.445,0,0,0-.445-.445A2.849,2.849,0,0,0,14.636,7.7a.445.445,0,0,0,.889,0,1.959,1.959,0,0,1,1.957-1.957A.443.443,0,0,0,17.927,5.3Zm-.445-2.85A.445.445,0,0,0,17.927,2V.445a.445.445,0,0,0-.889,0V2A.445.445,0,0,0,17.482,2.448ZM12.248,7.682a.445.445,0,0,0-.445-.445H10.245a.445.445,0,1,0,0,.889H11.8A.443.443,0,0,0,12.248,7.682ZM24.72,7.238H23.162a.445.445,0,0,0,0,.889H24.72a.445.445,0,0,0,0-.889ZM13.154,11.385l-1.1,1.1a.444.444,0,0,0,.626.629l1.1-1.1a.444.444,0,0,0-.626-.629ZM21.5,4.111a.444.444,0,0,0,.313-.128l1.1-1.1a.445.445,0,0,0-.629-.629l-1.1,1.1a.443.443,0,0,0,0,.629A.452.452,0,0,0,21.5,4.111Zm-8.344-.132a.444.444,0,0,0,.626-.629l-1.1-1.1a.445.445,0,0,0-.629.629Zm8.657,7.406a.445.445,0,0,0-.629.629l1.1,1.1a.444.444,0,0,0,.626-.629Z"
                    transform="translate(-9.8)" />
            </g>
        </g>
    </g>
</svg>