<svg xmlns="http://www.w3.org/2000/svg" width="44.899" height="44.723" viewBox="0 0 44.899 44.723">
    
    <g transform="translate(0 -1.004)">
        <path fill="#213fb9"
            d="M39.581,102.971a2.7,2.7,0,1,0,0-1.315h-4.46a8.048,8.048,0,0,0,.05-.878V97.151A13.924,13.924,0,0,0,31.2,86.835a12.5,12.5,0,0,0-8.752-3.466A12.5,12.5,0,0,0,13.7,86.835,13.925,13.925,0,0,0,9.725,97.151v3.626a8.2,8.2,0,0,0,.048.878H5.317a2.7,2.7,0,1,0,0,1.315h4.7A15.635,15.635,0,0,0,19.2,113a9.226,9.226,0,0,0,3.252.65A9.207,9.207,0,0,0,25.7,113a13.506,13.506,0,0,0,2.689-1.367.658.658,0,0,0-.719-1.1,12.193,12.193,0,0,1-2.427,1.235,7.176,7.176,0,0,1-5.587,0,14.5,14.5,0,0,1-8.278-8.793H33.511a14.038,14.038,0,0,1-3.86,5.993.658.658,0,0,0,.9.96,14.993,14.993,0,0,0,4.329-6.953h4.7Zm2.617-2.04a1.383,1.383,0,1,1-1.383,1.383A1.386,1.386,0,0,1,42.2,100.931ZM2.7,103.7a1.383,1.383,0,1,1,1.385-1.383A1.384,1.384,0,0,1,2.7,103.7Zm8.4-2.041a6.967,6.967,0,0,1-.058-.878V98.835c2.912,0,3.5-1.845,3.934-3.192.386-1.2.6-1.626,1.454-1.626h4.61a.658.658,0,0,0,0-1.315h-4.61c-1.893,0-2.344,1.408-2.707,2.54-.408,1.272-.73,2.277-2.682,2.278v-.369c0-8.566,5.913-12.467,11.408-12.467s11.408,3.9,11.408,12.467v.369c-1.951,0-2.273-1.006-2.68-2.277-.363-1.132-.814-2.541-2.708-2.541H24.092a.658.658,0,0,0,0,1.315h4.376c.858,0,1.07.422,1.456,1.627.431,1.346,1.022,3.19,3.933,3.191v1.942a6.729,6.729,0,0,1-.061.878H11.1Z"
            transform="translate(0 -75.142)" />
        <path fill="#213fb9"
            d="M1.654,11.438a.658.658,0,0,0,.658-.658V3.065a.747.747,0,0,1,.746-.746h7.715a.658.658,0,0,0,0-1.315H3.057A2.064,2.064,0,0,0,1,3.065V10.78a.658.658,0,0,0,.658.658Z"
            transform="translate(-0.909)" />
        <path fill="#213fb9"
            d="M392.653,2.319h7.717a.746.746,0,0,1,.743.746V10.78a.658.658,0,0,0,1.315,0V3.065A2.062,2.062,0,0,0,400.37,1h-7.717a.658.658,0,1,0,0,1.315Z"
            transform="translate(-357.62)" />
        <path fill="#213fb9"
            d="M10.772,401.132H3.057a.746.746,0,0,1-.746-.743v-7.717a.658.658,0,1,0-1.315,0v7.717a2.062,2.062,0,0,0,2.061,2.059h7.715a.658.658,0,0,0,0-1.315Z"
            transform="translate(-0.909 -356.72)" />
        <path fill="#213fb9"
            d="M401.772,392.013a.658.658,0,0,0-.658.658v7.717a.744.744,0,0,1-.743.743h-7.717a.658.658,0,1,0,0,1.315h7.717a2.061,2.061,0,0,0,2.059-2.059v-7.717A.658.658,0,0,0,401.772,392.013Z"
            transform="translate(-357.621 -356.72)" />
    </g>
</svg>