<svg height="15.043" viewBox="0 0 15.043 15.043" width="15.043" xmlns="http://www.w3.org/2000/svg">
    <path
        d="M7.962,4A3.981,3.981,0,1,0,3.555,7.938v2.669H2.233a.441.441,0,1,0,0,.881H3.555V12.81a.441.441,0,1,0,.881,0V11.488H5.759a.441.441,0,1,0,0-.881H4.436V7.938A3.972,3.972,0,0,0,7.962,4ZM.881,4A3.1,3.1,0,1,1,4,7.081,3.118,3.118,0,0,1,.881,4Z" />
    <path
        d="M245.407,66.312V62.5l1.011,1.01a.441.441,0,1,0,.623-.623l-1.763-1.763a.441.441,0,0,0-.623,0l-1.763,1.763a.441.441,0,0,0,.623.623l1.01-1.01v3.808a3.982,3.982,0,0,0,.441,7.938,3.98,3.98,0,0,0,.441-7.938Zm-.441,7.057a3.1,3.1,0,1,1,3.114-3.114A3.1,3.1,0,0,1,244.966,73.369Z"
        transform="translate(-233.919 -59.207)" />
</svg>