<svg xmlns="http://www.w3.org/2000/svg" width="24" height="24" viewBox="0 0 24 24">
    <g transform="translate(0 0)">
        <rect fill="#fff" opacity="0" width="24" height="23.933" transform="translate(0 0.067)" />
        <g transform="translate(0 0)">
            <path fill="#fff"
                d="M14804.77,2872.623a2.763,2.763,0,0,1-2.769-2.757V2858.22a2.763,2.763,0,0,1,2.769-2.757h18.462a2.763,2.763,0,0,1,2.769,2.757v11.646a2.763,2.763,0,0,1-2.769,2.757Zm-1.541-14.4v11.646a1.537,1.537,0,0,0,1.541,1.533h18.462a1.534,1.534,0,0,0,1.537-1.533V2858.22a1.534,1.534,0,0,0-1.537-1.533h-18.462A1.537,1.537,0,0,0,14803.229,2858.22Zm7.911,10.024-.279-.093a.554.554,0,0,1-.246-.521v-6.895a.554.554,0,0,1,.246-.521.523.523,0,0,1,.584,0l5.879,3.446a.585.585,0,0,1,0,1.046l-5.879,3.445a.5.5,0,0,1-.289.093Zm.706-1.693,4.03-2.37-4.03-2.366Zm-6.679-12.937a.614.614,0,0,1,0-1.228h17.692a.614.614,0,1,1,0,1.228Zm2.62-3.382a.616.616,0,1,1,0-1.232h12.427a.616.616,0,1,1,0,1.232Z"
                transform="translate(-14802 -2849)" />
        </g>
    </g>
</svg>