<svg xmlns="http://www.w3.org/2000/svg" xmlns:xlink="http://www.w3.org/1999/xlink" width="24"
    height="24" viewBox="0 0 24 24">
    <defs>
        <clipPath id="a">
            <rect fill="#fff" width="24" height="24" />
        </clipPath>
    </defs>
    <g class="b">
        <path fill="#fff"
            d="M23.6,10.729,21.569,8.882V2.756a.706.706,0,0,0-.706-.706h-4.88a.706.706,0,0,0-.706.706v.393L12.829.917a1.225,1.225,0,0,0-1.658,0L.4,10.729a1.231,1.231,0,0,0,.829,2.14h1.72V22.7a.706.706,0,0,0,.706.706h5.9a.706.706,0,0,0,.706-.706V16.731h3.469V22.7a.706.706,0,0,0,.706.706h5.9a.706.706,0,0,0,.706-.706V12.869h1.72a1.231,1.231,0,0,0,.829-2.14Zm-3.255.729a.706.706,0,0,0-.706.706v9.831h-4.49V16.025a.706.706,0,0,0-.706-.706H9.56a.706.706,0,0,0-.706.706v5.969H4.363V12.164a.706.706,0,0,0-.706-.706H1.7L12,2.072l3.508,3.2a.706.706,0,0,0,1.181-.522V3.462h3.469V9.193a.706.706,0,0,0,.23.522L22.3,11.458H20.342Z" />
    </g>
</svg>