<svg xmlns="http://www.w3.org/2000/svg" width="24" height="24.202" viewBox="0 0 24 24.202">
    <rect fill="#fff" opacity="0" width="24" height="24" transform="translate(0 0.202)" />
    <path fill="#fff" d="M287.582,209.508h-9.5a.75.75,0,0,1,0-1.5h9.5a.75.75,0,0,1,0,1.5Zm0,0"
        transform="translate(-264.332 -198.258)" />
    <path fill="#fff"
        d="M400.754,136.972a.75.75,0,0,1-.53-1.281l3.22-3.22-3.22-3.22a.75.75,0,1,1,1.061-1.061l3.75,3.75a.75.75,0,0,1,0,1.061l-3.75,3.75a.745.745,0,0,1-.531.221Zm0,0"
        transform="translate(-381.254 -121.972)" />
    <path fill="#fff"
        d="M8,24.008a2.061,2.061,0,0,1-.62-.093l-6.018-2A2.018,2.018,0,0,1,0,20.008v-18a2,2,0,0,1,2-2A2.062,2.062,0,0,1,2.62.1l6.018,2A2.018,2.018,0,0,1,10,4.008v18a2,2,0,0,1-2,2ZM2,1.508a.5.5,0,0,0-.5.5v18a.52.52,0,0,0,.347.482l5.99,2A.543.543,0,0,0,8,22.508a.5.5,0,0,0,.5-.5v-18a.52.52,0,0,0-.347-.482l-5.99-2A.543.543,0,0,0,2,1.508Zm0,0"
        transform="translate(0 -0.008)" />
    <path fill="#fff"
        d="M40.668,8.008a.75.75,0,0,1-.75-.75v-4.5a1.252,1.252,0,0,0-1.25-1.25H27.418a.75.75,0,0,1,0-1.5h11.25a2.752,2.752,0,0,1,2.75,2.75v4.5A.75.75,0,0,1,40.668,8.008Zm0,0"
        transform="translate(-25.418 -0.008)" />
    <path fill="#fff"
        d="M186.082,285.34h-4a.75.75,0,1,1,0-1.5h4a1.252,1.252,0,0,0,1.25-1.25v-4.5a.75.75,0,0,1,1.5,0v4.5A2.752,2.752,0,0,1,186.082,285.34Zm0,0"
        transform="translate(-172.832 -264.34)" />
</svg>