<svg xmlns="http://www.w3.org/2000/svg" width="24" height="23.998" viewBox="0 0 24 23.998">
    <path fill="#fff"
        d="M19846.609-1544.664c0-.005,0-.005-.01-.01l-2.99-2.92a.937.937,0,0,1-.014-1.326.94.94,0,0,1,1.324-.015l2.986,2.915a.53.53,0,0,0,.4.145.534.534,0,0,0,.369-.184l4.619-6.453a.941.941,0,0,1,1.311-.219.942.942,0,0,1,.215,1.311l-4.639,6.478c-.012.015-.021.03-.031.045a2.428,2.428,0,0,1-1.719.892c-.055,0-.109,0-.16,0A2.41,2.41,0,0,1,19846.609-1544.664Zm-11.859.663a3.75,3.75,0,0,1-3.752-3.747v-7.689a3.755,3.755,0,0,1,3.752-3.752h1.121v-3.3a5.573,5.573,0,0,1,5.627-5.506,5.575,5.575,0,0,1,5.625,5.506v3.3h1.127a3.754,3.754,0,0,1,3.746,3.752v1.874a.935.935,0,0,1-.936.937.935.935,0,0,1-.937-.937v-1.874a1.877,1.877,0,0,0-1.873-1.874h-13.5a1.88,1.88,0,0,0-1.879,1.874v7.689a1.88,1.88,0,0,0,1.879,1.874h7.4a.935.935,0,0,1,.938.937.935.935,0,0,1-.937.937Zm3-18.492v3.3h7.5v-3.3a3.694,3.694,0,0,0-3.746-3.633A3.7,3.7,0,0,0,19837.746-1562.493Zm8.156,10.713a.94.94,0,0,1,.941-.937.939.939,0,0,1,.938.937.939.939,0,0,1-.937.937A.94.94,0,0,1,19845.9-1551.78Zm-3.562,0a.94.94,0,0,1,.941-.937.939.939,0,0,1,.938.937.939.939,0,0,1-.937.937A.94.94,0,0,1,19842.34-1551.78Zm-3.514,0a.935.935,0,0,1,.938-.937.935.935,0,0,1,.936.937.935.935,0,0,1-.936.937A.936.936,0,0,1,19838.826-1551.78Zm-3.518,0a.94.94,0,0,1,.941-.937.939.939,0,0,1,.938.937.939.939,0,0,1-.937.937A.94.94,0,0,1,19835.309-1551.78Z"
        transform="translate(-19830.998 1568)" />
</svg>