<svg height="63.95" viewBox="0 0 63.951 63.95" width="63.951" xmlns="http://www.w3.org/2000/svg">
    <path d="M20805.576-5600.847a.086.086,0,0,0-.021-.021l-7.971-7.778a2.5,2.5,0,0,1-.043-3.534,2.5,2.5,0,0,1,3.529-.047l7.961,7.768a1.417,1.417,0,0,0,1.066.381,1.42,1.42,0,0,0,.982-.486l12.314-17.2a2.5,2.5,0,0,1,3.488-.575,2.5,2.5,0,0,1,.574,3.486l-12.363,17.266a.974.974,0,0,1-.082.11,6.439,6.439,0,0,1-4.58,2.389c-.141.011-.281.016-.424.016A6.463,6.463,0,0,1,20805.576-5600.847Zm-31.609,1.772a10.007,10.007,0,0,1-9.994-9.994v-20.485a10,10,0,0,1,9.994-9.989h2.99v-8.813a14.851,14.851,0,0,1,14.992-14.668,14.847,14.847,0,0,1,14.986,14.668v8.813h3a10,10,0,0,1,9.994,9.989v5a2.5,2.5,0,0,1-2.5,2.5,2.5,2.5,0,0,1-2.5-2.5v-5a5,5,0,0,0-5-4.992h-35.969a5,5,0,0,0-5,4.992v20.485a5,5,0,0,0,5,5h19.732a2.5,2.5,0,0,1,2.5,2.5,2.5,2.5,0,0,1-2.5,2.5Zm7.988-49.282v8.813h19.982v-8.813a9.848,9.848,0,0,0-9.988-9.676A9.853,9.853,0,0,0,20781.955-5648.356Zm22.994,28.807a2.5,2.5,0,0,1,2.5-2.5,2.5,2.5,0,0,1,2.5,2.5,2.5,2.5,0,0,1-2.5,2.5A2.5,2.5,0,0,1,20804.949-5619.549Zm-10,0a2.5,2.5,0,0,1,2.5-2.5,2.5,2.5,0,0,1,2.5,2.5,2.5,2.5,0,0,1-2.5,2.5A2.5,2.5,0,0,1,20794.949-5619.549Zm-10,0a2.5,2.5,0,0,1,2.5-2.5,2.5,2.5,0,0,1,2.5,2.5,2.5,2.5,0,0,1-2.5,2.5A2.5,2.5,0,0,1,20784.949-5619.549Zm-10,0a2.5,2.5,0,0,1,2.5-2.5,2.5,2.5,0,0,1,2.5,2.5,2.5,2.5,0,0,1-2.5,2.5A2.5,2.5,0,0,1,20774.949-5619.549Z"
        fill="#5d5d5d"
        transform="translate(-20763.973 5663.024)" />
</svg>