<svg xmlns="http://www.w3.org/2000/svg" width="32" height="32" viewBox="0 0 32 32">
    <g transform="translate(-0.418 0)">
        <rect fill="#213fb9" width="32" height="32" rx="16" transform="translate(0.418 0)" />
        <g transform="translate(8.098 8.098)">
            <rect fill="#fff" opacity="0" width="15.976" height="15.976" rx="7.988" />
            <g transform="translate(2.169)">
                <g transform="translate(0)">
                    <path fill="#fff"
                        d="M82.046,0H73.214a.467.467,0,0,0-.33.137L71.137,1.884a.467.467,0,0,0-.137.33v13.25a.467.467,0,0,0,.467.467H82.046a.467.467,0,0,0,.467-.467v-15A.467.467,0,0,0,82.046,0ZM75.209,4.037a1.385,1.385,0,0,1,1.355-1.375v-.19c0-.095.108-.183.257-.183.129,0,.257.088.257.183v.169c.42.014,1.212.122,1.212.589,0,.183-.122.555-.42.555-.224,0-.352-.217-.793-.251v.989c.616.23,1.334.549,1.334,1.463a1.44,1.44,0,0,1-1.334,1.477v.2c0,.095-.129.183-.257.183-.149,0-.257-.088-.257-.183V7.491c-.813-.027-1.477-.447-1.477-.881,0-.23.2-.569.461-.569.284,0,.515.4,1.016.488v-1.1C75.94,5.2,75.209,4.9,75.209,4.037Zm4.97,9.653H73.334a.467.467,0,0,1,0-.933h6.845a.467.467,0,1,1,0,.933Zm0-1.867H73.334a.467.467,0,0,1,0-.933h6.845a.467.467,0,1,1,0,.933Zm0-1.867H77.69a.467.467,0,1,1,0-.933h2.489a.467.467,0,1,1,0,.933Z"
                        transform="translate(-71 0)" />
                    <path fill="#fff"
                        d="M264.579,180.948c0-.224-.169-.366-.413-.481v.908C264.4,181.32,264.579,181.192,264.579,180.948Z"
                        transform="translate(-258.156 -174.852)" />
                    <path fill="#fff"
                        d="M238.476,114.287c-.3.061-.434.217-.434.379,0,.2.176.318.434.427Z"
                        transform="translate(-232.845 -110.731)" />
                </g>
            </g>
        </g>
    </g>
</svg>