<svg xmlns="http://www.w3.org/2000/svg" width="32" height="32" viewBox="0 0 32 32">
    <g transform="translate(0.416)">
        <rect fill="#213fb9" width="32" height="32" rx="16" transform="translate(-0.416)" />
        <g transform="translate(8 8)">
            <rect fill="#fff" opacity="0" width="16.225" height="16.225" />
            <g transform="translate(0.175)">
                <path fill="#fff" d="M271,274.523c.541-.133.94-.481.94-.881s-.4-.748-.94-.881Z"
                    transform="translate(-262.504 -264.211)" />
                <path fill="#fff"
                    d="M96.173,91a5.173,5.173,0,1,0,5.173,5.173A5.178,5.178,0,0,0,96.173,91Zm2.351,6.579a2.046,2.046,0,0,1-1.881,1.843v.513a.47.47,0,1,1-.94,0v-.513a2.046,2.046,0,0,1-1.881-1.843.47.47,0,1,1,.94,0c0,.4.4.748.94.881V96.6a1.843,1.843,0,1,1,0-3.686v-.508a.47.47,0,0,1,.94,0v.508a2.046,2.046,0,0,1,1.881,1.843.47.47,0,0,1-.94,0c0-.4-.4-.748-.94-.881v1.859A2.046,2.046,0,0,1,98.524,97.579Z"
                    transform="translate(-88.147 -88.147)" />
                <path fill="#fff" d="M211.94,182.761c-.541.133-.94.481-.94.881s.4.748.94.881Z"
                    transform="translate(-204.385 -177.032)" />
                <path fill="#fff"
                    d="M8.025,0a8.025,8.025,0,1,0,8.025,8.025A8.057,8.057,0,0,0,8.025,0Zm0,14.138a6.113,6.113,0,1,1,6.113-6.113A6.12,6.12,0,0,1,8.025,14.138Z" />
            </g>
        </g>
    </g>
</svg>