<svg xmlns="http://www.w3.org/2000/svg" width="24.3" height="23.907" viewBox="0 0 24.3 23.907">
    <g transform="translate(0.15 0.15)">
        <path fill="#fff" stroke="#fff" stroke-width="0.3px"
            d="M114.922,107.535a6.688,6.688,0,0,0-4.949-1.728,6.393,6.393,0,0,0-2.762,12.1v3.178a3.167,3.167,0,0,0,6.331,0v-3.15a6.716,6.716,0,0,0,3.511-5.714A6.458,6.458,0,0,0,114.922,107.535Zm-4.547,15.443a2.021,2.021,0,0,1-1.928-1.672H112.3A2.021,2.021,0,0,1,110.375,122.978Zm2.014-2.787h-4.029v-.836h4.029Zm.288-3.122a.554.554,0,0,0-.288.5v.669h-4.029v-.669a.581.581,0,0,0-.288-.53,5.208,5.208,0,0,1-3.223-4.822,5.486,5.486,0,0,1,5.18-5.3h.345a5.471,5.471,0,0,1,5.525,5.3A5.318,5.318,0,0,1,112.677,117.068Z"
            transform="translate(-98.375 -100.542)" />
        <path fill="#fff" stroke="#fff" stroke-width="0.3px" d="M215.022,4.125a.557.557,0,0,0,.557-.557V.557a.557.557,0,0,0-1.115,0v3.01A.557.557,0,0,0,215.022,4.125Z" transform="translate(-203.021)" />
        <path fill="#fff" stroke="#fff" stroke-width="0.3px" d="M7.486,208.457H4.475a.558.558,0,0,0,0,1.115h3.01a.558.558,0,0,0,0-1.115Z" transform="translate(-3.918 -197.526)" />
        <path fill="#fff" stroke="#fff" stroke-width="0.3px" d="M372.156,208.457h-3.01a.558.558,0,0,0,0,1.115h3.01a.558.558,0,0,0,0-1.115Z" transform="translate(-348.713 -197.526)" />
        <path fill="#fff" stroke="#fff" stroke-width="0.3px" d="M64.745,61.607l2.146,2.118a.53.53,0,0,0,.748.032l.032-.032a.53.53,0,0,0,.032-.748l-.032-.032-2.146-2.118a.558.558,0,1,0-.781.78Z" transform="translate(-61.289 -57.37)" />
        <path fill="#fff" stroke="#fff" stroke-width="0.3px" d="M323.224,63.725a.539.539,0,0,0,.781,0l2.146-2.118a.558.558,0,1,0-.78-.781l-2.146,2.118a.529.529,0,0,0-.032.748Z" transform="translate(-305.607 -57.369)" />
    </g>
</svg>