<svg height="15.794" viewBox="0 0 24.107 15.794" width="24.107" xmlns="http://www.w3.org/2000/svg">

    <g transform="translate(0 -88.276)">
        <path d="M10.426,103.3a.111.111,0,0,0,0-.212l-2.182-.667a.111.111,0,0,1,0-.212l2.181-.664a.111.111,0,0,0,0-.212l-2.181-.664a.111.111,0,0,1,0-.212l2.182-.667a.111.111,0,0,0,0-.212l-2.182-.664a.111.111,0,0,1,0-.212l2.182-.667a.111.111,0,0,0,0-.212l-2.182-.664a.111.111,0,0,1,0-.212l2.182-.667a.111.111,0,0,0,0-.212l-2.182-.664a.111.111,0,0,1,0-.212l2.182-.667a.111.111,0,0,0,0-.212l-2.181-.664a.111.111,0,0,1,0-.212l2.181-.664a.111.111,0,0,0,0-.212L8.245,91.9a.111.111,0,0,1,0-.212l2.182-.664a.111.111,0,0,0,0-.212l-2.182-.667a.111.111,0,0,1,0-.212l2.182-.664a.111.111,0,0,0,0-.212l-2.514-.768a.108.108,0,0,0-.032,0H1.805A1.805,1.805,0,0,0,0,90.085v12.183a1.805,1.805,0,0,0,1.805,1.805H7.88a.11.11,0,0,0,.032,0Z"
            fill="#f5f5f5"
            transform="translate(0 -0.004)" />
        <path d="M181.793,88.276H167.372a.11.11,0,0,1,.032,0l2.514.768a.111.111,0,0,1,0,.212l-2.182.664a.111.111,0,0,0,0,.212l2.182.667a.111.111,0,0,1,0,.212l-2.182.664a.111.111,0,0,0,0,.212l2.182.667a.111.111,0,0,1,0,.212l-2.181.664a.111.111,0,0,0,0,.212l2.181.664a.111.111,0,0,1,0,.212l-2.182.667a.111.111,0,0,0,0,.212l2.182.664a.111.111,0,0,1,0,.212l-2.182.667a.111.111,0,0,0,0,.212l2.182.664a.111.111,0,0,1,0,.212l-2.182.667a.111.111,0,0,0,0,.212l2.182.664a.111.111,0,0,1,0,.212l-2.182.667a.111.111,0,0,0,0,.212l2.181.664a.111.111,0,0,1,0,.212l-2.181.664a.111.111,0,0,0,0,.212l2.182.667a.111.111,0,0,1,0,.212l-2.514.765a.112.112,0,0,1-.032,0h14.421a1.805,1.805,0,0,0,1.805-1.805V90.081A1.805,1.805,0,0,0,181.793,88.276Z"
            fill="#873250"
            transform="translate(-159.492 0)" />
    </g>
</svg>