<svg xmlns="http://www.w3.org/2000/svg" width="23.244" height="23.14" viewBox="0 0 23.244 23.14">
    <path fill="#fff" stroke-width="0.5px" stroke="#fff"
        d="M19841.2-1612.981a.476.476,0,0,1-.129-.423l.668-3.338a.488.488,0,0,1,.129-.239l7.34-7.339a1.419,1.419,0,0,1,2,0l1.336,1.335a1.417,1.417,0,0,1,0,2l-7.34,7.334a.455.455,0,0,1-.24.13l-3.338.668a.538.538,0,0,1-.09.01A.475.475,0,0,1,19841.2-1612.981Zm8.676-10.672-7.24,7.234-.5,2.5,2.5-.5,7.234-7.234a.474.474,0,0,0,0-.668l-1.336-1.335a.457.457,0,0,0-.33-.138A.468.468,0,0,0,19849.879-1623.653Zm-5,9.671h-.01Zm-12.2-1.689a2.361,2.361,0,0,1-2.363-2.362v-12.262a2.36,2.36,0,0,1,2.363-2.357h1.414v-.473a.472.472,0,0,1,.469-.473h1.465a2.362,2.362,0,0,1,2.313-1.883,2.366,2.366,0,0,1,2.311,1.883h1.461a.477.477,0,0,1,.473.473v.473H19844a2.359,2.359,0,0,1,2.357,2.357v5.66a.473.473,0,0,1-.473.473.472.472,0,0,1-.469-.473v-5.66a1.418,1.418,0,0,0-1.416-1.415h-1.414v.473a1.421,1.421,0,0,1-1.414,1.415h-5.66a1.418,1.418,0,0,1-1.416-1.415v-.473h-1.414a1.414,1.414,0,0,0-1.416,1.415v12.262a1.419,1.419,0,0,0,1.416,1.42h6.6a.472.472,0,0,1,.473.468.477.477,0,0,1-.473.473Zm2.355-15.565a.473.473,0,0,0,.475.468h5.66a.472.472,0,0,0,.473-.468v-.878a.4.4,0,0,1-.006-.069.387.387,0,0,1,.006-.068v-.4h-1.42a.472.472,0,0,1-.469-.473,1.418,1.418,0,0,0-1.414-1.415,1.414,1.414,0,0,0-1.416,1.415.477.477,0,0,1-.473.473h-1.416Zm-1.414,9.905a.477.477,0,0,1-.475-.473.477.477,0,0,1,.475-.473h9.432a.473.473,0,0,1,.473.473.473.473,0,0,1-.473.473Zm0-2.83a.477.477,0,0,1-.475-.473.477.477,0,0,1,.475-.473h9.432a.473.473,0,0,1,.473.473.473.473,0,0,1-.473.473Zm0-2.83a.477.477,0,0,1-.475-.473.477.477,0,0,1,.475-.473h9.432a.473.473,0,0,1,.473.473.473.473,0,0,1-.473.473Z"
        transform="translate(-19830.066 1635.731)" />
</svg>