<svg xmlns="http://www.w3.org/2000/svg" width="40" height="40" viewBox="0 0 40 40">
    <g transform="translate(-315 -386)">
        <rect fill="#D9EAFA" width="40" height="40" rx="5" transform="translate(315 386)" />
        <g transform="translate(18910 -10430)">
            <rect fill="#fff" opacity="0" width="24" height="24"
                transform="translate(-18587 10824)" />
            <g transform="translate(-18663.088 10824.355)">
                <g transform="translate(80.333)">
                    <path fill="#213FB9"
                        d="M95.983.941A6.5,6.5,0,0,0,92.543,0a15.581,15.581,0,0,0-4.416.873,14.365,14.365,0,0,1-4.023.815h0A5.183,5.183,0,0,1,81.7,1.125V.682a.682.682,0,0,0-1.365,0V22.607a.682.682,0,0,0,1.365,0V11.893a6.592,6.592,0,0,0,2.407.434,15.579,15.579,0,0,0,4.415-.873,14.362,14.362,0,0,1,4.023-.815,5.175,5.175,0,0,1,2.738.747.682.682,0,0,0,1.033-.585V1.526A.682.682,0,0,0,95.983.941Zm-7.855,9.206a14.362,14.362,0,0,1-4.023.815A5.185,5.185,0,0,1,81.7,10.4V2.618a6.589,6.589,0,0,0,2.406.434h0a15.581,15.581,0,0,0,4.415-.873,14.363,14.363,0,0,1,4.024-.815,5.185,5.185,0,0,1,2.406.563V9.708a6.591,6.591,0,0,0-2.406-.434A15.579,15.579,0,0,0,88.127,10.147Z"
                        transform="translate(-80.333)" />
                </g>
            </g>
        </g>
    </g>
</svg>