<svg xmlns="http://www.w3.org/2000/svg" width="20" height="20" viewBox="0 0 20 20">
   <g transform="translate(-311 -70)">
    <rect class="a" opacity="0" width="20" height="20"
        transform="translate(311 70)"/>
    <g transform="translate(152.979 -71.244)">
        <path class="b" fill="#0d1111" d="M168.022,177.164a9.135,9.135,0,0,1-4.568-17.046.83.83,0,1,1,.832,1.437,7.476,7.476,0,1,0,3.736-1,.83.83,0,0,1,0-1.661,9.135,9.135,0,0,1,0,18.269Z"
            transform="translate(0 -15.99)"/><path class="b" d="M250.2,147.057a.831.831,0,0,1-.622-.28l-2.2-2.486a.831.831,0,0,1,.189-1.259l2.721-1.666a.83.83,0,1,1,.867,1.416l-1.876,1.149,1.544,1.744a.831.831,0,0,1-.622,1.381Z" transform="translate(-79.982)"/></g></g></svg>