<svg xmlns="http://www.w3.org/2000/svg" width="24.002" height="24.345" viewBox="0 0 24.002 24.345">
    <g transform="translate(0.002)">
        <rect fill="#c1b3aa" opacity="0" width="24" height="24" transform="translate(-0.002 0.345)" />
        <path fill="#fff"
            d="M19834.514-1877a.7.7,0,0,1-.7-.7v-14.859h-2.111a.7.7,0,0,1-.7-.7v-5.626a2.113,2.113,0,0,1,2.113-2.108h14.061a2.112,2.112,0,0,1,2.109,2.108v21.188a.7.7,0,0,1-.7.7Zm.7-21.89v20.485h12.656v-20.485a.705.705,0,0,0-.7-.7H19835.1A2.2,2.2,0,0,1,19835.217-1898.892Zm-2.811,0v4.923h1.4v-4.923a.7.7,0,0,0-.7-.7A.705.705,0,0,0,19832.406-1898.892Zm19.777,19.782v-1.126a5.47,5.47,0,0,1-1.4-3.672v-10.668a2.112,2.112,0,0,1,1.4-1.988v-.827a.7.7,0,0,1,.7-.7.706.706,0,0,1,.707.7v.827a2.112,2.112,0,0,1,1.4,1.988v10.668a5.47,5.47,0,0,1-1.4,3.672v1.126a.706.706,0,0,1-.707.7A.7.7,0,0,1,19852.184-1879.11Zm0-4.8a4.11,4.11,0,0,0,.7,2.3,4.083,4.083,0,0,0,.707-2.3v-4.34h-1.41Zm0-10.668v4.923h1.41v-4.923a.706.706,0,0,0-.707-.7A.7.7,0,0,0,19852.184-1894.577Zm-9.232,14.765a.7.7,0,0,1-.7-.7.7.7,0,0,1,.7-.7h2.814a.7.7,0,0,1,.7.7.7.7,0,0,1-.7.7Zm-5.627-2.81a.707.707,0,0,1-.7-.708.705.705,0,0,1,.7-.7h8.441a.705.705,0,0,1,.7.7.707.707,0,0,1-.7.708Zm0-2.815a.7.7,0,0,1-.7-.7.7.7,0,0,1,.7-.7h8.441a.7.7,0,0,1,.7.7.7.7,0,0,1-.7.7Zm0-2.81a.7.7,0,0,1-.7-.7.7.7,0,0,1,.7-.7h8.441a.7.7,0,0,1,.7.7.7.7,0,0,1-.7.7Zm6.025-6.772a1.786,1.786,0,0,1,1.818-1.948c.971,0,1.5.608,1.5.972a.346.346,0,0,1-.383.384c-.488,0-.344-.673-1.121-.673-.533,0-.973.458-.973,1.266,0,.678.27,1.266,1,1.266.668,0,.652-.713,1.063-.713.209,0,.412.12.412.324,0,.538-.652,1.071-1.475,1.071A1.717,1.717,0,0,1,19843.35-1895.021Zm-3.684.9a1.266,1.266,0,0,1,.813-1.136,1.089,1.089,0,0,1-.359-.738.944.944,0,0,1,1.037-.922c.813,0,1.066.513,1.066.9a1.071,1.071,0,0,1-.643.932l.514.6a4.218,4.218,0,0,1,.2-.374.334.334,0,0,1,.27-.159.328.328,0,0,1,.334.294,1.276,1.276,0,0,1-.383.693l.309.374a.309.309,0,0,1,.074.2.358.358,0,0,1-.389.329.328.328,0,0,1-.254-.145l-.234-.274a1.638,1.638,0,0,1-1.2.448A1.038,1.038,0,0,1,19839.666-1894.124Zm.752-.06a.478.478,0,0,0,.51.5.993.993,0,0,0,.682-.319l-.678-.8C19840.633-1894.632,19840.418-1894.448,19840.418-1894.183Zm.385-1.874c0,.254.154.384.344.543.174-.1.424-.244.424-.533a.359.359,0,0,0-.385-.344A.351.351,0,0,0,19840.8-1896.057Zm-3.514,2.541v-2.651h-.8c-.24,0-.439-.125-.439-.359s.2-.354.439-.354h2.451c.238,0,.438.125.438.354s-.2.359-.437.359h-.8v2.651a.4.4,0,0,1-.424.423A.4.4,0,0,1,19837.289-1893.516Z"
            transform="translate(-19830.998 1901)" />
    </g>
</svg>