<svg xmlns="http://www.w3.org/2000/svg" width="24" height="24" viewBox="0 0 24 24">
    <rect fill="#fff" width="24" height="24" opacity="0" />
    <path fill="#fff"
        d="M20.484,3.515a12,12,0,0,0-16.97,16.97,12,12,0,0,0,16.97-16.97ZM6.015,20.736a6.076,6.076,0,0,1,11.968,0,10.57,10.57,0,0,1-11.968,0ZM8.184,10.494A3.815,3.815,0,1,1,12,14.309a3.82,3.82,0,0,1-3.815-3.815ZM19.2,19.761a7.494,7.494,0,0,0-4.357-4.891,5.222,5.222,0,1,0-5.69,0A7.493,7.493,0,0,0,4.8,19.761a10.593,10.593,0,1,1,14.4,0Zm0,0"
        transform="translate(0.001 0)" />
</svg>