<svg height="15.374" viewBox="0 0 16.043 15.374" width="16.043" xmlns="http://www.w3.org/2000/svg">
    <g transform="translate(0.001 0)">
        <path d="M9.358,14.7V9.633L8.5,10.5a.669.669,0,0,1-.947-.947l2.006-2a.668.668,0,0,1,.945,0l2.006,2h0a.669.669,0,0,1-.945.947l-.87-.865V14.7a.668.668,0,1,1-1.337,0ZM.037,11.579A3.653,3.653,0,0,1,1.487,8.12.692.692,0,0,0,1.694,7.3,5.3,5.3,0,0,1,2.561,1.9a5.359,5.359,0,0,1,9.227,1.911.751.751,0,0,0,.512.5,4.639,4.639,0,0,1,2.587,1.68,5.313,5.313,0,0,1-1.926,8.158.665.665,0,0,1-.63-.052.658.658,0,0,1-.3-.556.648.648,0,0,1,.356-.591,3.942,3.942,0,0,0-.521-7.377A1.984,1.984,0,0,1,10.526,4.25,4,4,0,0,0,6.677,1.4a4.177,4.177,0,0,0-.516.031A3.977,3.977,0,0,0,2.894,4.073a4.043,4.043,0,0,0,.049,2.744,2,2,0,0,1-.662,2.368,2.3,2.3,0,0,0-.918,2.208A2.411,2.411,0,0,0,3.8,13.374H7.354a.665.665,0,1,1,0,1.33H3.742A3.753,3.753,0,0,1,.037,11.579Z"
            fill="#0d1111"
            transform="translate(-0.001)" />
    </g>
</svg>