<svg height="42.176" viewBox="0 0 42.176 42.176" width="42.176" xmlns="http://www.w3.org/2000/svg">
    <path d="M33.389,42.176H8.787A8.8,8.8,0,0,1,0,33.389V8.787A8.8,8.8,0,0,1,8.787,0h24.6a8.8,8.8,0,0,1,8.787,8.787v24.6A8.8,8.8,0,0,1,33.389,42.176ZM8.787,3.515A5.272,5.272,0,0,0,3.515,8.787v24.6a5.272,5.272,0,0,0,5.272,5.272h24.6a5.272,5.272,0,0,0,5.272-5.272V8.787a5.272,5.272,0,0,0-5.272-5.272Zm7.63,26.369a4.161,4.161,0,0,1-2.084-.568,4.065,4.065,0,0,1-2.046-3.552V16.412a4.107,4.107,0,0,1,6.151-3.566l9.275,4.631a4.105,4.105,0,0,1,.086,7.177l-9.447,4.722A3.866,3.866,0,0,1,16.417,29.883Zm-.044-14.059a.552.552,0,0,0-.276.074.575.575,0,0,0-.3.513v9.352a.592.592,0,0,0,.879.515l9.447-4.724a.552.552,0,0,0,.211-.467.571.571,0,0,0-.3-.513l-9.268-4.631a.812.812,0,0,0-.4-.119Z"
        fill="#213FB9" />
</svg>