<svg xmlns="http://www.w3.org/2000/svg" width="32" height="32" viewBox="0 0 32 32">
    <g transform="translate(-0.252 0)">
        <rect fill="#213fb9" width="32" height="32" rx="16" transform="translate(0.252 0)" />
        <g transform="translate(7.998 7.999)">
            <rect fill="#fff" opacity="0" width="16.044" height="16.044" />
            <rect fill="#fff" width="9.626" height="1.783" transform="translate(3.209)" />
            <path fill="#fff"
                d="M14.439,170.667H1.6a1.6,1.6,0,0,0-1.6,1.6v6.418a1.6,1.6,0,0,0,1.6,1.6H14.439a1.6,1.6,0,0,0,1.6-1.6v-6.418A1.6,1.6,0,0,0,14.439,170.667ZM6.418,178.1v-5.238l4.813,2.619Z"
                transform="translate(0 -164.25)" />
            <rect fill="#fff" width="12.835" height="1.783" transform="translate(1.426 3.209)" />
        </g>
    </g>
</svg>