<svg xmlns="http://www.w3.org/2000/svg" width="246.891" height="168.453"
    viewBox="0 0 246.891 168.453">
    <g transform="translate(0.052 0.519)">
        <path fill="#FFFFFF"
            d="M103.409-208.066v-9.212h2.45V-239.72h-2.45v-9.163h30.038v10.78h-9.212v-1.617H117.08v6.665h1.666v-1.617h9.163v12.4h-9.163v-1.617H117.08v6.615h7.154v-1.617h9.212v10.829Zm-16.562,0V-223.3l-1.323-1.323H79.938v7.35h2.451v9.212H66.267v-9.212h2.451V-239.72H66.267v-9.163H91.552l6.517,6.517v10.437l-2.7,2.695,2.7,2.7v9.261h2.45v9.212ZM79.938-233.79h5.586l1.323-1.323V-238.4l-1.323-1.323H79.938ZM38.582-208.066l-6.517-6.517v-27.783l6.517-6.517H56.565l6.517,6.517v27.783l-6.517,6.517Zm4.7-30.331v19.845l1.323,1.274h5.978l1.274-1.274V-238.4l-1.274-1.323H44.609ZM13-208.066v-9.212h2.45v-10.584l-8.917,14.8-8.918-14.8v10.584H.068v9.212H-16.052v-9.212h2.45V-239.72h-2.45v-9.163H-2.921L6.537-233.1l9.456-15.778H29.125v9.163h-2.45v22.442h2.45v9.212Zm-53.009-7v-5.264h1.4v-12.824h-1.4v-5.236h14.449l3.723,3.724v15.876l-3.723,3.724Zm7.812-5.264H-29l.756-.728V-232.4l-.756-.756h-3.192Zm-17.22,5.264-6.272-10.444v5.18h1.4v5.264H-63.5v-5.264h1.4v-12.824h-1.4v-5.236h7.588l6.412,10.668v-5.432h-1.4v-5.236h9.212v5.236h-1.4v12.824h1.4v5.264Zm-24.332,0v-5.264h.756l-.336-1.064h-6.187l-.365,1.064h.756v5.264h-8.932v-5.264h1.4l5.125-12.824h-1.008v-5.236h12.4v5.236h-1.176l5.124,12.824h1.4v5.264Zm-4.172-10.78h2.968l-1.484-3.7Zm164-33.22v-26.509h7.05v-64.578h-7.05v7.05H59.575v-33.417h99.264V-343.1H132.471v-7.05h-7.05v64.578h7.05v26.509Zm-81.357,0v-26.509h7.051v-64.578H4.725v-26.367h46.39v26.367H44.064v64.578h7.051v26.509Zm-92.777,0v-26.509H-81v-64.578h-7.05v-26.367H-1.62v31.02H-28.128v-4.653H-48.713v19.176h4.793v-4.653h26.367v35.672H-43.92v-4.653h-4.793v19.035h13.536v26.509Z"
            transform="translate(88 376)" />
    </g>
</svg>