<svg xmlns="http://www.w3.org/2000/svg" width="44.864" height="50.122" viewBox="0 0 44.864 50.122">
  <g id="user" transform="translate(-24.165)">
    <g id="g01" transform="translate(33.587)">
      <g id="g1">
        <path id="Path_84932" d="M123.8,0a13.013,13.013,0,1,0,13.013,13.013A13.048,13.048,0,0,0,123.8,0Z" transform="translate(-110.791)" fill="silver"/>
      </g>
    </g>
    <g id="g2" transform="translate(24.165 26.958)">
      <g id="g3" transform="translate(0)">
        <path id="Path_84933" d="M68.934,257.309a12.132,12.132,0,0,0-1.307-2.387,16.176,16.176,0,0,0-11.195-7.047,2.4,2.4,0,0,0-1.648.4,13.871,13.871,0,0,1-16.366,0,2.132,2.132,0,0,0-1.648-.4,16.058,16.058,0,0,0-11.195,7.047,13.989,13.989,0,0,0-1.307,2.387,1.208,1.208,0,0,0,.057,1.08,22.669,22.669,0,0,0,1.534,2.273,21.594,21.594,0,0,0,2.614,2.955,34.058,34.058,0,0,0,2.614,2.273,25.915,25.915,0,0,0,30.914,0,24.985,24.985,0,0,0,2.614-2.273,26.239,26.239,0,0,0,2.614-2.955,19.923,19.923,0,0,0,1.534-2.273A.97.97,0,0,0,68.934,257.309Z" transform="translate(-24.165 -247.841)" fill="silver"/>
      </g>
    </g>
  </g>
</svg>
