<svg xmlns="http://www.w3.org/2000/svg" width="71.644" height="67.316" viewBox="0 0 71.644 67.316">
  <path id="video-player" d="M71.644,14.77A5.77,5.77,0,0,0,65.874,9H5.77A5.77,5.77,0,0,0,0,14.77V70.546a5.77,5.77,0,0,0,5.77,5.77h60.1a5.77,5.77,0,0,0,5.77-5.77ZM21.878,16.212H32.216v8.174H21.878ZM14.665,69.1H7.212V60.93h7.453Zm0-44.717H7.212V16.212h7.453ZM32.216,69.1H21.878V60.93H32.216ZM29.571,49.32V36c0-1.983,1.411-2.717,3.07-1.631l9.674,6.316a2.19,2.19,0,0,1,.013,3.951L32.635,50.95C30.975,52.037,29.571,51.3,29.571,49.32ZM49.766,69.1H39.428V60.93H49.766Zm0-44.717H39.428V16.212H49.766ZM64.431,69.1H56.979V60.93h7.453Zm0-44.717H56.979V16.212h7.453Z" transform="translate(0 -9)" fill="silver"/>
</svg>
